<svg width="500" height="300" viewBox="0 0 500 300" fill="none" xmlns="http://www.w3.org/2000/svg">
<rect width="500" height="300" fill="white"/>
<path d="M332.34 155.568H364.665V209.106H403.051" stroke="black"/>
<path opacity="0.2" d="M428.924 206.62H428.083H418.181C417.973 206.261 417.649 205.978 417.262 205.82V194.959H411.168V195.418V205.82C410.779 205.978 410.457 206.261 410.249 206.62H399.507V212.714H410.058C410.267 213.521 410.998 214.12 411.872 214.12H416.559C417.432 214.12 418.164 213.521 418.373 212.714H428.924V206.62V206.62Z" fill="black"/>
<path opacity="0.2" d="M428.689 206.385H427.848H417.945C417.738 206.027 417.414 205.743 417.027 205.585V194.724H410.933V195.183V205.585C410.544 205.743 410.222 206.027 410.014 206.385H399.272V212.479H409.823C410.032 213.287 410.763 213.885 411.637 213.885H416.324C417.197 213.885 417.929 213.287 418.138 212.479H428.689V206.385V206.385Z" fill="black"/>
<path opacity="0.2" d="M428.456 206.151H427.614H417.712C417.504 205.793 417.181 205.509 416.793 205.351V194.49H410.699V194.949V205.351C410.311 205.509 409.988 205.793 409.781 206.151H399.038V212.245H409.589C409.798 213.053 410.529 213.651 411.403 213.651H416.091C416.963 213.651 417.696 213.053 417.904 212.245H428.456V206.151V206.151Z" fill="black"/>
<path d="M428.22 212.01V205.917H427.379H398.803V212.01H428.22Z" fill="#616161"/>
<path d="M427.379 206.758H399.643V211.17H427.379V206.758Z" fill="url(#paint0_linear)"/>
<path d="M416.558 194.255H410.464V194.714V210.314H416.558V194.255Z" fill="#616161"/>
<path d="M415.718 194.714H411.304V209.854H415.718V194.714Z" fill="url(#paint1_linear)"/>
<path d="M417.73 211.542C417.73 212.578 416.89 213.417 415.855 213.417H411.168C410.133 213.417 409.293 212.578 409.293 211.542V206.854C409.293 205.819 410.133 204.979 411.168 204.979H415.855C416.89 204.979 417.73 205.819 417.73 206.854V211.542Z" fill="url(#paint2_linear)"/>
<path d="M411.168 205.917C410.65 205.917 410.23 206.338 410.23 206.854V211.542C410.23 212.059 410.65 212.479 411.168 212.479H415.855C416.373 212.479 416.793 212.059 416.793 211.542V206.854C416.793 206.338 416.373 205.917 415.855 205.917H411.168Z" fill="url(#paint3_linear)"/>
<path d="M411.168 206.621C411.038 206.621 410.933 206.727 410.933 206.856V211.543C410.933 211.673 411.038 211.778 411.168 211.778H415.855C415.985 211.778 416.09 211.673 416.09 211.543V206.856C416.09 206.727 415.985 206.621 415.855 206.621H411.168Z" fill="url(#paint4_linear)"/>
<path opacity="0.2" d="M442.238 86.7609L400.654 114.009C400.641 114.022 400.52 114.098 400.52 114.098C400.546 114.082 400.371 114.219 400.371 114.219C400.311 114.266 400.311 114.254 400.26 114.311L399.711 114.951C399.661 115.012 399.676 115.002 399.638 115.072L399.635 115.081C399.642 115.069 399.502 115.323 399.502 115.323C399.496 115.338 399.445 115.453 399.445 115.453C399.442 115.465 399.343 115.722 399.343 115.722L399.302 115.852C399.296 115.878 399.236 116.132 399.236 116.132L399.207 116.29L399.182 116.607C399.182 116.579 399.175 116.699 399.175 116.699V189.009C399.175 190.418 400.073 191.665 401.412 192.112L432.385 202.438C433.403 202.775 434.523 202.597 435.379 201.953L476.679 170.977C477.497 170.365 477.986 169.385 477.986 168.363V96.0943C477.986 96.069 477.979 95.9833 477.976 95.9484C477.976 95.9167 477.96 95.739 477.96 95.7358C477.96 95.7358 477.928 95.5296 477.928 95.5169C477.925 95.5138 477.909 95.3996 477.909 95.3996C477.9 95.3488 477.897 95.352 477.881 95.3012C477.881 95.3012 477.811 95.0538 477.808 95.0538L477.741 94.8698C477.732 94.8476 477.637 94.6382 477.637 94.6382C477.634 94.6318 477.538 94.451 477.538 94.451C477.526 94.4288 477.402 94.2384 477.402 94.2384C477.402 94.2384 477.278 94.0671 477.275 94.0671L477.151 93.918C477.135 93.899 477.113 93.8799 477.097 93.8609L476.977 93.734C476.964 93.7245 476.818 93.5976 476.818 93.5976C476.777 93.5627 476.637 93.4517 476.637 93.4517C476.618 93.439 476.45 93.3279 476.45 93.3279C476.422 93.3121 476.222 93.1947 476.222 93.1947C476.19 93.1788 476.015 93.0995 476.015 93.0995C475.981 93.0868 475.803 93.0139 475.803 93.0139C475.806 93.0139 475.565 92.9409 475.565 92.9409C475.574 92.944 475.4 92.8965 475.4 92.8965L444.719 86.301C443.856 86.117 442.974 86.2819 442.238 86.761L442.238 86.7609Z" fill="black"/>
<path opacity="0.2" d="M476.79 96.021C476.79 95.9735 476.786 95.9227 476.78 95.8783C476.774 95.8243 476.767 95.7736 476.758 95.7228C476.751 95.6975 476.751 95.6721 476.745 95.6499C476.742 95.6308 476.732 95.6086 476.726 95.5896C476.713 95.5388 476.698 95.4881 476.682 95.4373C476.669 95.3929 476.653 95.3485 476.637 95.3072C476.618 95.2597 476.596 95.2152 476.571 95.1708C476.548 95.1296 476.529 95.0883 476.504 95.0471C476.479 95.0059 476.45 94.9646 476.425 94.9234C476.399 94.8853 476.371 94.8472 476.345 94.8092C476.314 94.7711 476.279 94.733 476.247 94.6981C476.215 94.6632 476.184 94.6283 476.152 94.5966C476.117 94.5617 476.079 94.53 476.041 94.5014C476.003 94.4729 475.968 94.438 475.93 94.4126C475.889 94.3841 475.851 94.3587 475.809 94.3333C475.765 94.3079 475.727 94.2793 475.679 94.2603C475.67 94.2539 475.66 94.2476 475.647 94.2413C475.613 94.2254 475.581 94.2127 475.546 94.2001C475.498 94.181 475.457 94.1588 475.41 94.143C475.359 94.1239 475.308 94.1112 475.251 94.0954C475.219 94.0859 475.187 94.0732 475.156 94.0668L444.469 87.4713C443.923 87.3539 443.358 87.4618 442.892 87.7631L401.307 115.008C401.298 115.015 401.288 115.024 401.279 115.03C401.263 115.04 401.247 115.049 401.231 115.059C401.193 115.084 401.158 115.119 401.12 115.148C401.101 115.164 401.076 115.183 401.057 115.199C400.923 115.322 400.803 115.459 400.704 115.608C400.689 115.63 400.676 115.659 400.663 115.681C400.631 115.735 400.6 115.789 400.574 115.843C400.562 115.874 400.546 115.906 400.533 115.935C400.511 115.988 400.489 116.039 400.473 116.093C400.463 116.125 400.451 116.16 400.441 116.192C400.425 116.249 400.416 116.303 400.403 116.36C400.397 116.391 400.39 116.426 400.384 116.458C400.374 116.521 400.371 116.588 400.368 116.652C400.368 116.677 400.365 116.702 400.365 116.728C400.365 116.734 400.365 116.737 400.365 116.744V189.012C400.365 189.907 400.939 190.703 401.786 190.986L432.759 201.309C433.406 201.524 434.117 201.41 434.662 201.001L475.965 170.025C476.485 169.632 476.796 169.016 476.796 168.363V96.094C476.796 96.0686 476.793 96.0464 476.79 96.021L476.79 96.021Z" fill="black"/>
<path opacity="0.2" d="M441.645 86.1675L400.057 113.413C400.044 113.425 399.924 113.501 399.924 113.501C399.949 113.486 399.775 113.622 399.775 113.622C399.715 113.67 399.715 113.657 399.664 113.714L399.115 114.355C399.064 114.415 399.08 114.406 399.042 114.475L399.039 114.485C399.045 114.472 398.906 114.726 398.906 114.726C398.899 114.742 398.849 114.856 398.849 114.856C398.845 114.869 398.747 115.126 398.747 115.126L398.706 115.256C398.699 115.281 398.639 115.535 398.639 115.535L398.611 115.694L398.585 116.011C398.585 115.982 398.579 116.103 398.579 116.103V188.413C398.579 189.821 399.477 191.068 400.815 191.515L431.788 201.842C432.807 202.178 433.926 202 434.783 201.356L476.082 170.381C476.901 169.768 477.389 168.788 477.389 167.766V95.4977C477.389 95.4723 477.383 95.3867 477.38 95.3518C477.38 95.32 477.364 95.1424 477.364 95.1392C477.364 95.1392 477.332 94.933 477.332 94.9203C477.329 94.9172 477.313 94.8029 477.313 94.8029C477.307 94.7522 477.304 94.7553 477.288 94.7046C477.288 94.7046 477.218 94.4571 477.215 94.4571L477.148 94.2731C477.139 94.2509 477.043 94.0415 477.043 94.0415C477.04 94.0352 476.945 93.8544 476.945 93.8544C476.932 93.8322 476.809 93.6418 476.809 93.6418C476.809 93.6418 476.685 93.4705 476.682 93.4705L476.558 93.3214C476.542 93.3024 476.52 93.2833 476.504 93.2643L476.384 93.1374C476.371 93.1279 476.225 93.001 476.225 93.001C476.18 92.9661 476.041 92.855 476.041 92.855C476.022 92.8424 475.854 92.7313 475.854 92.7313C475.825 92.7155 475.625 92.5981 475.625 92.5981C475.594 92.5822 475.419 92.5029 475.419 92.5029C475.384 92.4902 475.207 92.4172 475.207 92.4172C475.21 92.4172 474.969 92.3443 474.969 92.3443C474.978 92.3474 474.804 92.2999 474.804 92.2999L444.123 85.7043C443.26 85.5235 442.381 85.6853 441.645 86.1675L441.645 86.1675Z" fill="black"/>
<path opacity="0.2" d="M476.193 95.4248C476.193 95.3773 476.19 95.3265 476.184 95.2821C476.177 95.2281 476.171 95.1774 476.161 95.1266C476.155 95.1013 476.155 95.0759 476.149 95.0537C476.146 95.0346 476.136 95.0124 476.13 94.9934C476.117 94.9426 476.101 94.8919 476.085 94.8411C476.069 94.7967 476.054 94.7555 476.038 94.711C476.019 94.6635 475.996 94.619 475.971 94.5746C475.949 94.5334 475.93 94.4921 475.904 94.4509C475.879 94.4097 475.851 94.3684 475.825 94.3272C475.8 94.2891 475.771 94.251 475.746 94.213C475.714 94.1749 475.679 94.1368 475.647 94.1019C475.616 94.067 475.584 94.0321 475.552 94.0004C475.517 93.9655 475.479 93.9338 475.441 93.9052C475.403 93.8767 475.368 93.8418 475.33 93.8164C475.289 93.7879 475.251 93.7625 475.21 93.7371C475.168 93.7054 475.127 93.68 475.083 93.6578C475.073 93.6514 475.064 93.6451 475.051 93.6387C475.016 93.6229 474.984 93.6102 474.95 93.5975C474.902 93.5785 474.861 93.5563 474.813 93.5404C474.762 93.5214 474.712 93.5087 474.654 93.4928C474.623 93.4833 474.591 93.4706 474.559 93.4643L443.872 86.8687C443.326 86.7513 442.762 86.8592 442.295 87.1606L400.711 114.409C400.701 114.415 400.692 114.425 400.682 114.431C400.666 114.441 400.65 114.45 400.635 114.46C400.597 114.485 400.562 114.52 400.524 114.548C400.505 114.564 400.479 114.583 400.46 114.599C400.327 114.723 400.206 114.859 400.108 115.008C400.092 115.031 400.079 115.059 400.067 115.081C400.035 115.135 400.003 115.189 399.978 115.243C399.965 115.275 399.949 115.307 399.937 115.335C399.914 115.389 399.892 115.44 399.876 115.494C399.867 115.526 399.854 115.56 399.845 115.592C399.829 115.649 399.819 115.703 399.807 115.76C399.8 115.792 399.794 115.827 399.788 115.859C399.778 115.922 399.775 115.989 399.772 116.052C399.772 116.078 399.769 116.103 399.769 116.128C399.769 116.135 399.769 116.138 399.769 116.144V188.413C399.769 189.308 400.343 190.104 401.19 190.386L432.163 200.709C432.81 200.925 433.52 200.811 434.066 200.402L475.368 169.426C475.889 169.032 476.199 168.417 476.199 167.763V95.4978C476.199 95.4724 476.196 95.4502 476.193 95.4248L476.193 95.4248Z" fill="black"/>
<path d="M441.049 85.1682L399.464 112.413C399.451 112.426 399.331 112.505 399.331 112.505C399.356 112.489 399.182 112.626 399.182 112.626C399.121 112.673 399.121 112.661 399.071 112.718L398.522 113.359C398.471 113.419 398.487 113.409 398.449 113.479L398.442 113.486C398.449 113.476 398.309 113.727 398.309 113.727C398.303 113.743 398.252 113.857 398.252 113.857C398.249 113.869 398.151 114.126 398.151 114.13L398.109 114.26C398.103 114.285 398.043 114.539 398.043 114.539L398.014 114.698L397.992 115.015C397.992 114.986 397.986 115.107 397.986 115.107V187.42C397.986 188.828 398.883 190.075 400.222 190.523L431.195 200.849C432.213 201.185 433.333 201.004 434.19 200.364L475.489 169.388C476.307 168.772 476.796 167.795 476.796 166.773V94.4984C476.796 94.4762 476.79 94.3874 476.786 94.3525C476.786 94.3208 476.771 94.1431 476.771 94.1399C476.771 94.1399 476.739 93.9337 476.739 93.921C476.736 93.9179 476.72 93.8037 476.72 93.8037C476.71 93.7529 476.707 93.7529 476.691 93.7053C476.691 93.7053 476.622 93.4579 476.618 93.4579L476.552 93.277C476.542 93.2548 476.447 93.0454 476.447 93.0454C476.444 93.0423 476.349 92.8583 476.349 92.8583C476.336 92.8392 476.212 92.6457 476.212 92.6457C476.212 92.6457 476.089 92.4744 476.085 92.4744L475.962 92.3253C475.946 92.3062 475.924 92.284 475.908 92.2682L475.787 92.1413C475.774 92.1318 475.629 92.0017 475.629 92.0017C475.584 91.9668 475.445 91.8558 475.445 91.8558C475.425 91.8431 475.257 91.732 475.257 91.732C475.229 91.713 475.029 91.5988 475.029 91.5988C474.997 91.5829 474.823 91.5036 474.823 91.5036C474.788 91.4909 474.61 91.418 474.61 91.418C474.613 91.418 474.372 91.3482 474.372 91.3482C474.382 91.3513 474.207 91.3037 474.207 91.3037L443.526 84.7082C442.667 84.5242 441.785 84.686 441.049 85.1682L441.049 85.1682Z" fill="url(#paint5_linear)"/>
<path d="M475.6 94.4253C475.6 94.3777 475.597 94.3301 475.59 94.2825C475.584 94.2318 475.578 94.1778 475.568 94.1302C475.562 94.1049 475.562 94.0795 475.555 94.0573C475.552 94.0382 475.543 94.016 475.536 93.997C475.524 93.9462 475.508 93.8955 475.492 93.8447C475.476 93.8003 475.46 93.7591 475.444 93.7146C475.425 93.6671 475.403 93.6226 475.378 93.5782C475.356 93.537 475.337 93.4957 475.311 93.4545C475.286 93.4133 475.257 93.372 475.232 93.3308C475.206 93.2927 475.178 93.2546 475.153 93.2166C475.121 93.1785 475.086 93.1436 475.054 93.1055C475.022 93.0706 474.991 93.0389 474.959 93.004C474.924 92.9723 474.886 92.9406 474.848 92.9088C474.81 92.8803 474.775 92.8486 474.737 92.82C474.696 92.7915 474.658 92.7692 474.616 92.7439C474.572 92.7185 474.534 92.6899 474.486 92.6677C474.477 92.6614 474.467 92.655 474.455 92.6487C474.42 92.6328 474.388 92.6201 474.353 92.6043C474.305 92.5852 474.264 92.5662 474.217 92.5472C474.166 92.5313 474.115 92.5155 474.058 92.4996C474.026 92.4932 473.995 92.4806 473.963 92.471L443.276 85.8755C442.73 85.7581 442.165 85.866 441.699 86.1705L400.114 113.409C400.105 113.416 400.095 113.425 400.086 113.432C400.07 113.441 400.054 113.451 400.038 113.46C400 113.489 399.965 113.52 399.927 113.549C399.908 113.565 399.883 113.581 399.864 113.6C399.73 113.723 399.61 113.86 399.512 114.009C399.496 114.034 399.483 114.06 399.47 114.082C399.439 114.136 399.407 114.187 399.381 114.244C399.369 114.272 399.353 114.304 399.34 114.336C399.318 114.39 399.296 114.44 399.28 114.494C399.27 114.526 399.258 114.561 399.248 114.593C399.232 114.647 399.223 114.704 399.21 114.761C399.204 114.792 399.197 114.827 399.191 114.859C399.182 114.926 399.178 114.989 399.175 115.056C399.175 115.081 399.172 115.107 399.172 115.132C399.172 115.135 399.172 115.141 399.172 115.145V187.417C399.172 188.311 399.746 189.104 400.593 189.39L431.566 199.713C432.213 199.929 432.924 199.811 433.47 199.402L474.772 168.429C475.292 168.036 475.603 167.42 475.603 166.767V94.4982C475.606 94.476 475.603 94.4507 475.6 94.4253L475.6 94.4253Z" fill="url(#paint6_linear)"/>
<path d="M473.525 166.77L432.226 197.746L401.256 187.42V115.148L432.226 125.474L473.525 94.4985V166.77Z" fill="url(#paint7_radial)"/>
<path d="M401.256 115.148L432.226 125.475L473.525 94.4986L442.841 87.9062L401.256 115.148Z" fill="url(#paint8_linear)"/>
<path d="M432.226 197.746V125.474L401.256 115.148V187.42L432.226 197.746Z" fill="url(#paint9_linear)"/>
<path d="M401.256 187.42L432.226 197.746V179.486L401.256 169.638V187.42Z" fill="url(#paint10_linear)"/>
<path d="M425.887 140.645V135.204L405.942 128.558V133.996L425.887 140.645Z" fill="url(#paint11_linear)"/>
<path d="M425.887 148.348V142.91L405.942 136.261V141.702L425.887 148.348Z" fill="url(#paint12_linear)"/>
<path d="M425.887 156.054V150.616L405.942 143.967V149.408L425.887 156.054Z" fill="url(#paint13_linear)"/>
<path d="M424.882 188.708C423.445 188.324 422.318 189.016 422.318 190.285C422.318 191.554 423.445 192.851 424.882 193.235L426.404 193.644C427.845 194.031 428.971 193.336 428.971 192.067C428.971 190.802 427.845 189.501 426.404 189.117L424.882 188.708Z" fill="url(#paint14_linear)"/>
<path d="M424.882 189.317C423.781 189.019 422.883 189.523 422.883 190.44C422.883 191.357 423.781 192.34 424.882 192.632L426.404 193.041C427.509 193.336 428.403 192.832 428.403 191.918C428.403 191.004 427.509 190.021 426.404 189.729L424.882 189.317Z" fill="url(#paint15_linear)"/>
<path d="M428.219 191.865C428.219 192.67 427.407 193.105 426.408 192.835L424.885 192.429C423.886 192.16 423.077 191.293 423.077 190.488C423.077 189.685 423.886 189.25 424.885 189.517L426.408 189.926C427.407 190.196 428.219 191.062 428.219 191.865V191.865Z" fill="url(#paint16_linear)"/>
<path d="M424.882 189.923C424.104 189.717 423.451 190.043 423.451 190.64C423.451 191.236 424.108 191.915 424.882 192.128L426.404 192.537C427.182 192.743 427.838 192.416 427.838 191.817C427.838 191.217 427.182 190.541 426.404 190.332L424.882 189.923Z" fill="url(#paint17_linear)"/>
<path d="M424.825 189.666C424.184 189.495 423.689 189.783 423.689 190.145C423.689 190.507 424.184 191.062 424.825 191.233L426.468 191.674C427.118 191.852 427.604 191.566 427.604 191.198C427.604 190.83 427.118 190.285 426.468 190.11L424.825 189.666Z" fill="url(#paint18_linear)"/>
<path d="M102.53 185.988V188.484C101.733 187.742 100.882 187.187 99.9753 186.82C99.0769 186.453 98.1199 186.269 97.1042 186.269C95.1042 186.269 93.573 186.882 92.5105 188.109C91.448 189.328 90.9167 191.093 90.9167 193.406C90.9167 195.71 91.448 197.476 92.5105 198.703C93.573 199.921 95.1042 200.531 97.1042 200.531C98.1199 200.531 99.0769 200.347 99.9753 199.98C100.882 199.613 101.733 199.058 102.53 198.316V200.789C101.702 201.351 100.823 201.773 99.8933 202.054C98.9714 202.335 97.9949 202.476 96.9636 202.476C94.3152 202.476 92.2292 201.667 90.7058 200.05C89.1824 198.425 88.4207 196.21 88.4207 193.406C88.4207 190.593 89.1824 188.378 90.7058 186.761C92.2292 185.136 94.3152 184.324 96.9636 184.324C98.0105 184.324 98.9949 184.464 99.9167 184.746C100.846 185.019 101.718 185.433 102.53 185.988" fill="black"/>
<path d="M106.116 183.902H108.272V202.136H106.116V183.902Z" fill="black"/>
<path d="M112.772 189.011H114.928V202.136H112.772V189.011ZM112.772 183.902H114.928V186.632H112.772V183.902Z" fill="black"/>
<path d="M130.655 195.035V196.089H120.741C120.835 197.574 121.28 198.707 122.077 199.488C122.882 200.261 123.999 200.648 125.428 200.648C126.257 200.648 127.057 200.546 127.831 200.343C128.612 200.14 129.385 199.835 130.151 199.429V201.468C129.378 201.796 128.585 202.046 127.772 202.218C126.96 202.39 126.135 202.476 125.3 202.476C123.206 202.476 121.546 201.867 120.319 200.648C119.1 199.429 118.491 197.781 118.491 195.703C118.491 193.554 119.069 191.851 120.225 190.593C121.389 189.328 122.956 188.695 124.925 188.695C126.69 188.695 128.085 189.265 129.108 190.406C130.139 191.539 130.655 193.082 130.655 195.035V195.035ZM128.499 194.402C128.483 193.222 128.151 192.281 127.503 191.578C126.862 190.875 126.01 190.523 124.948 190.523C123.745 190.523 122.78 190.863 122.053 191.542C121.335 192.222 120.921 193.179 120.811 194.414L128.499 194.402" fill="black"/>
<path d="M145.104 194.214V202.136H142.948V194.285C142.948 193.042 142.706 192.113 142.221 191.496C141.737 190.878 141.01 190.57 140.042 190.57C138.878 190.57 137.96 190.941 137.288 191.683C136.616 192.425 136.28 193.437 136.28 194.718V202.136H134.112V189.011H136.28V191.05C136.796 190.261 137.401 189.671 138.096 189.281C138.8 188.89 139.608 188.695 140.522 188.695C142.03 188.695 143.171 189.164 143.944 190.101C144.718 191.031 145.104 192.402 145.104 194.214" fill="black"/>
<path d="M151.561 185.285V189.011H156.003V190.687H151.561V197.812C151.561 198.882 151.706 199.57 151.995 199.875C152.292 200.179 152.889 200.332 153.788 200.332H156.003V202.136H153.788C152.124 202.136 150.975 201.828 150.343 201.21C149.71 200.585 149.393 199.453 149.393 197.812V190.687H147.811V189.011H149.393V185.285H151.561Z" fill="black"/>
<path d="M167.218 189.398V191.437C166.608 191.125 165.975 190.89 165.319 190.734C164.663 190.578 163.983 190.5 163.28 190.5C162.21 190.5 161.405 190.664 160.866 190.992C160.335 191.32 160.069 191.812 160.069 192.468C160.069 192.968 160.26 193.363 160.643 193.652C161.026 193.933 161.796 194.203 162.952 194.46L163.69 194.625C165.221 194.953 166.307 195.417 166.948 196.019C167.596 196.613 167.921 197.445 167.921 198.515C167.921 199.734 167.436 200.699 166.468 201.41C165.507 202.121 164.182 202.476 162.495 202.476C161.792 202.476 161.057 202.406 160.292 202.265C159.534 202.132 158.733 201.929 157.889 201.656V199.429C158.686 199.843 159.471 200.156 160.245 200.367C161.018 200.57 161.784 200.671 162.542 200.671C163.557 200.671 164.339 200.5 164.885 200.156C165.432 199.804 165.706 199.312 165.706 198.679C165.706 198.093 165.507 197.644 165.108 197.332C164.718 197.019 163.854 196.718 162.518 196.429L161.768 196.253C160.432 195.972 159.468 195.542 158.874 194.964C158.28 194.378 157.983 193.578 157.983 192.562C157.983 191.328 158.421 190.375 159.296 189.703C160.171 189.031 161.413 188.695 163.022 188.695C163.819 188.695 164.569 188.753 165.272 188.871C165.975 188.988 166.624 189.164 167.218 189.398" fill="black"/>
<path d="M208.223 127.694C175.709 116.5 166.081 149.171 190.214 160.876C171.015 191.527 228.778 205.62 242.78 184.525C271.502 204.021 293.224 192.156 290.996 177.926C347.008 174.793 323.31 92.1681 271.71 122.276C260.328 98.3139 212.601 99.2006 208.223 127.694V127.694Z" fill="white" stroke="#646464"/>
<path d="M203.775 141.082H206.143V158.578H203.775V141.082Z" fill="black"/>
<path d="M221.67 150.656V158.578H219.514V150.727C219.514 149.484 219.271 148.555 218.787 147.938C218.303 147.32 217.576 147.012 216.607 147.012C215.443 147.012 214.525 147.383 213.854 148.125C213.182 148.867 212.846 149.879 212.846 151.16V158.578H210.678V145.453H212.846V147.492C213.361 146.703 213.967 146.113 214.662 145.723C215.365 145.332 216.174 145.137 217.088 145.137C218.596 145.137 219.736 145.605 220.51 146.543C221.283 147.473 221.67 148.844 221.67 150.656" fill="black"/>
<path d="M228.127 141.727V145.453H232.568V147.129H228.127V154.254C228.127 155.324 228.271 156.012 228.561 156.316C228.857 156.621 229.455 156.773 230.354 156.773H232.568V158.578H230.354C228.689 158.578 227.541 158.27 226.908 157.652C226.275 157.027 225.959 155.895 225.959 154.254V147.129H224.377V145.453H225.959V141.727H228.127" fill="black"/>
<path d="M246.643 151.477V152.531H236.729C236.822 154.016 237.268 155.148 238.064 155.93C238.869 156.703 239.986 157.09 241.416 157.09C242.244 157.09 243.045 156.988 243.818 156.785C244.6 156.582 245.373 156.277 246.139 155.871V157.91C245.365 158.238 244.572 158.488 243.76 158.66C242.947 158.832 242.123 158.918 241.287 158.918C239.193 158.918 237.533 158.309 236.307 157.09C235.088 155.871 234.479 154.223 234.479 152.145C234.479 149.996 235.057 148.293 236.213 147.035C237.377 145.77 238.943 145.137 240.912 145.137C242.678 145.137 244.072 145.707 245.096 146.848C246.127 147.98 246.643 149.523 246.643 151.477ZM244.486 150.844C244.471 149.664 244.139 148.723 243.49 148.02C242.85 147.316 241.998 146.965 240.936 146.965C239.732 146.965 238.768 147.305 238.041 147.984C237.322 148.664 236.908 149.621 236.799 150.855L244.486 150.844" fill="black"/>
<path d="M257.787 147.469C257.545 147.328 257.279 147.227 256.99 147.164C256.709 147.094 256.396 147.059 256.053 147.059C254.834 147.059 253.896 147.457 253.24 148.254C252.592 149.043 252.268 150.18 252.268 151.664V158.578H250.1V145.453H252.268V147.492C252.721 146.695 253.311 146.105 254.037 145.723C254.764 145.332 255.646 145.137 256.686 145.137C256.834 145.137 256.998 145.148 257.178 145.172C257.357 145.187 257.557 145.215 257.775 145.254L257.787 147.469" fill="black"/>
<path d="M270.561 150.656V158.578H268.404V150.727C268.404 149.484 268.162 148.555 267.678 147.938C267.193 147.32 266.467 147.012 265.498 147.012C264.334 147.012 263.416 147.383 262.744 148.125C262.072 148.867 261.736 149.879 261.736 151.16V158.578H259.568V145.453H261.736V147.492C262.252 146.703 262.857 146.113 263.553 145.723C264.256 145.332 265.064 145.137 265.979 145.137C267.486 145.137 268.627 145.605 269.4 146.543C270.174 147.473 270.561 148.844 270.561 150.656" fill="black"/>
<path d="M286.111 151.477V152.531H276.197C276.291 154.016 276.736 155.148 277.533 155.93C278.338 156.703 279.455 157.09 280.885 157.09C281.713 157.09 282.514 156.988 283.287 156.785C284.068 156.582 284.842 156.277 285.607 155.871V157.91C284.834 158.238 284.041 158.488 283.229 158.66C282.416 158.832 281.592 158.918 280.756 158.918C278.662 158.918 277.002 158.309 275.775 157.09C274.557 155.871 273.947 154.223 273.947 152.145C273.947 149.996 274.525 148.293 275.682 147.035C276.846 145.77 278.412 145.137 280.381 145.137C282.146 145.137 283.541 145.707 284.564 146.848C285.596 147.98 286.111 149.523 286.111 151.477ZM283.955 150.844C283.939 149.664 283.607 148.723 282.959 148.02C282.318 147.316 281.467 146.965 280.404 146.965C279.201 146.965 278.236 147.305 277.51 147.984C276.791 148.664 276.377 149.621 276.268 150.855L283.955 150.844" fill="black"/>
<path d="M291.783 141.727V145.453H296.225V147.129H291.783V154.254C291.783 155.324 291.928 156.012 292.217 156.316C292.514 156.621 293.111 156.773 294.01 156.773H296.225V158.578H294.01C292.346 158.578 291.197 158.27 290.564 157.652C289.932 157.027 289.615 155.895 289.615 154.254V147.129H288.033V145.453H289.615V141.727H291.783" fill="black"/>
<path d="M403.614 226.771V229.08C402.715 228.65 401.868 228.33 401.071 228.119C400.274 227.908 399.504 227.802 398.762 227.802C397.473 227.802 396.477 228.052 395.774 228.552C395.079 229.052 394.731 229.763 394.731 230.685C394.731 231.458 394.961 232.044 395.422 232.443C395.891 232.834 396.774 233.15 398.071 233.392L399.501 233.685C401.266 234.021 402.567 234.615 403.403 235.466C404.247 236.31 404.668 237.443 404.668 238.865C404.668 240.56 404.098 241.845 402.958 242.72C401.825 243.595 400.161 244.033 397.965 244.033C397.137 244.033 396.254 243.939 395.317 243.751C394.387 243.564 393.422 243.287 392.422 242.919V240.482C393.383 241.021 394.325 241.427 395.247 241.701C396.168 241.974 397.075 242.111 397.965 242.111C399.317 242.111 400.36 241.845 401.094 241.314C401.829 240.783 402.196 240.025 402.196 239.041C402.196 238.181 401.93 237.509 401.399 237.025C400.875 236.541 400.012 236.177 398.809 235.935L397.368 235.654C395.602 235.302 394.325 234.751 393.536 234.001C392.747 233.251 392.352 232.208 392.352 230.873C392.352 229.326 392.895 228.107 393.981 227.216C395.075 226.326 396.579 225.88 398.493 225.88C399.313 225.88 400.149 225.955 401.001 226.103C401.852 226.251 402.723 226.474 403.614 226.771" fill="black"/>
<path d="M419.493 236.591V237.646H409.579C409.672 239.13 410.118 240.263 410.915 241.044C411.719 241.818 412.836 242.205 414.266 242.205C415.094 242.205 415.895 242.103 416.669 241.9C417.45 241.697 418.223 241.392 418.989 240.986V243.025C418.215 243.353 417.422 243.603 416.61 243.775C415.797 243.947 414.973 244.033 414.137 244.033C412.044 244.033 410.383 243.423 409.157 242.205C407.938 240.986 407.329 239.337 407.329 237.259C407.329 235.111 407.907 233.408 409.063 232.15C410.227 230.884 411.794 230.251 413.762 230.251C415.528 230.251 416.922 230.822 417.946 231.962C418.977 233.095 419.493 234.638 419.493 236.591V236.591ZM417.336 235.958C417.321 234.779 416.989 233.837 416.34 233.134C415.7 232.431 414.848 232.08 413.786 232.08C412.583 232.08 411.618 232.419 410.891 233.099C410.172 233.779 409.758 234.736 409.649 235.97L417.336 235.959" fill="black"/>
<path d="M430.637 232.583C430.395 232.443 430.129 232.341 429.84 232.279C429.559 232.209 429.247 232.173 428.903 232.173C427.684 232.173 426.747 232.572 426.09 233.369C425.442 234.158 425.118 235.294 425.118 236.779V243.693H422.95V230.568H425.118V232.607C425.571 231.81 426.161 231.22 426.887 230.837C427.614 230.447 428.497 230.251 429.536 230.251C429.684 230.251 429.848 230.263 430.028 230.287C430.207 230.302 430.407 230.33 430.625 230.369L430.637 232.583" fill="black"/>
<path d="M431.375 230.568H433.661L437.762 241.583L441.864 230.568H444.149L439.227 243.693H436.297L431.375 230.568Z" fill="black"/>
<path d="M458.352 236.591V237.646H448.438C448.532 239.13 448.977 240.263 449.774 241.044C450.579 241.818 451.696 242.205 453.125 242.205C453.954 242.205 454.754 242.103 455.528 241.9C456.309 241.697 457.082 241.392 457.848 240.986V243.025C457.075 243.353 456.282 243.603 455.469 243.775C454.657 243.947 453.832 244.033 452.997 244.033C450.903 244.033 449.243 243.423 448.016 242.205C446.797 240.986 446.188 239.337 446.188 237.259C446.188 235.111 446.766 233.408 447.922 232.15C449.086 230.884 450.653 230.251 452.622 230.251C454.387 230.251 455.782 230.822 456.805 231.962C457.836 233.095 458.352 234.638 458.352 236.591V236.591ZM456.196 235.958C456.18 234.779 455.848 233.837 455.2 233.134C454.559 232.431 453.708 232.08 452.645 232.08C451.442 232.08 450.477 232.419 449.75 233.099C449.032 233.779 448.618 234.736 448.508 235.97L456.196 235.959" fill="black"/>
<path d="M469.497 232.583C469.254 232.443 468.989 232.341 468.7 232.279C468.419 232.209 468.106 232.173 467.762 232.173C466.544 232.173 465.606 232.572 464.95 233.369C464.301 234.158 463.977 235.294 463.977 236.779V243.693H461.809V230.568H463.977V232.607C464.43 231.81 465.02 231.22 465.747 230.837C466.473 230.447 467.356 230.251 468.395 230.251C468.544 230.251 468.708 230.263 468.887 230.287C469.067 230.302 469.266 230.33 469.485 230.369L469.497 232.583" fill="black"/>
<path d="M92.9341 150H170.716" stroke="black"/>
<path d="M179.807 263.634L226.274 202.015" stroke="black"/>
<path d="M168.533 41.8452L215 103.465" stroke="black"/>
<path d="M140.23 23.2407H83.853V63.2501H140.23V23.2407Z" fill="#F2F2F2"/>
<path d="M76.7693 81.0732L81.7767 71.0733H111.769H141.762L146.769 81.0732L151.777 91.0733H111.769H71.762L76.7693 81.0732V81.0732ZM81.7693 43.5733V21.0732H111.769H141.769V43.5733V66.0733H111.769H81.7693V43.5733V43.5733ZM136.769 43.5733V26.0732H111.769H86.7693V43.5733V61.0733H111.769H136.769V43.5733Z" fill="#1A1A1A"/>
<path d="M77.7239 117.983H45.2239V176.667H77.7239V117.983Z" fill="#F2F2F2"/>
<path d="M45.9163 115.169C44.448 115.526 42.8508 116.786 42.2159 118.095C41.5413 119.504 41.5909 116.786 41.5909 149.96C41.5909 171.24 41.6207 180.129 41.7 180.506C42.0969 182.421 43.6544 184.137 45.579 184.762L46.3032 185H60.8369H75.3706L76.0849 184.772C76.9381 184.504 78.1385 183.73 78.694 183.085C79.2099 182.48 79.7357 181.478 79.954 180.675C80.1226 180.079 80.1325 178.373 80.1325 149.931V119.822L79.8647 119.028C79.2 117.073 77.6226 115.615 75.698 115.159C74.7853 114.941 46.8092 114.95 45.9163 115.169ZM64.8845 117.411C65.0433 117.57 65.0333 117.639 64.8448 117.827C64.7159 117.966 64.2099 117.986 60.8865 117.986C58.7933 117.986 57.0175 117.956 56.9282 117.927C56.7695 117.867 56.7099 117.48 56.8389 117.361C56.8687 117.322 58.6742 117.292 60.8369 117.292C63.7635 117.292 64.7952 117.322 64.8845 117.411ZM75.4698 120.417L75.7178 120.655V148.115C75.7079 169.544 75.6881 175.605 75.5889 175.734C75.5194 175.823 75.3706 175.942 75.2516 176.002C75.0928 176.091 71.4321 176.121 60.7873 176.121H46.5314L46.2437 175.833L45.956 175.546V148.194C45.956 127.599 45.9857 120.794 46.075 120.635C46.1345 120.516 46.2536 120.367 46.3429 120.298C46.4619 120.198 49.7357 120.179 60.8667 120.169H75.2317L75.4698 120.417ZM61.7298 178.7C61.948 178.81 62.2456 179.087 62.3945 179.315C62.7814 179.901 62.7913 180.774 62.4044 181.349C61.6504 182.49 59.9044 182.421 59.2298 181.23C58.952 180.734 58.9421 179.99 59.2 179.454C59.6068 178.601 60.827 178.244 61.7298 178.7Z" fill="black"/>
<path d="M132.893 227.978H66.2227V273.283H132.893V227.978Z" fill="#F2F2F2"/>
<path d="M80.0953 285.564C79.8235 285.292 79.6011 284.88 79.6011 284.649C79.6011 284.417 79.8235 284.005 80.0953 283.734L80.5895 283.239H86.1355H91.6816V279.212V275.186H78.7865H65.8915L65.3973 274.691L64.9031 274.197V250.754C64.9031 227.972 64.9139 227.297 65.288 226.835L65.6729 226.36H99.6346H133.596L133.981 226.835C134.355 227.297 134.366 227.973 134.366 250.831V274.351L133.836 274.768C133.312 275.181 133.15 275.186 120.446 275.186H107.588V279.212V283.239H113.097C118.367 283.239 118.63 283.258 119.138 283.657C119.851 284.217 119.851 285.08 119.138 285.641C118.609 286.056 118.524 286.058 99.5983 286.058H80.5895L80.0953 285.564V285.564ZM131.749 250.723V229.078H99.6346H67.5205V250.723V272.367H99.6346H131.749V250.723V250.723ZM143.907 285.863C143.674 285.767 143.288 285.443 143.052 285.142L142.621 284.594V256.141C142.621 236.112 142.686 227.546 142.84 227.208C142.96 226.944 143.314 226.578 143.626 226.393C144.137 226.092 145.293 226.058 155.205 226.058C165.118 226.058 166.273 226.092 166.784 226.393C167.097 226.578 167.45 226.944 167.57 227.208C167.724 227.546 167.789 236.118 167.789 256.165V284.642L167.202 285.3L166.614 285.957L155.473 285.998C149.346 286.02 144.141 285.959 143.907 285.863V285.863ZM156.02 270.463C156.291 270.191 156.514 269.841 156.514 269.685C156.514 269.178 155.698 268.34 155.205 268.34C154.712 268.34 153.896 269.178 153.896 269.685C153.896 270.071 154.809 270.957 155.205 270.957C155.381 270.957 155.748 270.735 156.02 270.463V270.463ZM156.683 265.443C157.216 264.345 156.433 263.105 155.205 263.105C153.425 263.105 152.911 265.529 154.546 266.216C155.384 266.569 156.296 266.239 156.683 265.443ZM165.776 245.286V243.172H155.205H144.635V245.286V247.4H155.205H165.776V245.286ZM165.776 236.729V234.514H155.205H144.635V236.729V238.944H155.205H165.776V236.729Z" fill="black"/>
<defs>
<linearGradient id="paint0_linear" x1="413.511" y1="206.758" x2="413.511" y2="211.171" gradientUnits="userSpaceOnUse">
<stop stop-color="#CECEDB"/>
<stop offset="0.191" stop-color="white"/>
<stop offset="0.4831" stop-color="#CECEDB"/>
<stop offset="0.7528" stop-color="#B3B3C6"/>
<stop offset="0.9944" stop-color="#828282"/>
</linearGradient>
<linearGradient id="paint1_linear" x1="411.304" y1="202.284" x2="415.718" y2="202.284" gradientUnits="userSpaceOnUse">
<stop stop-color="#CECEDB"/>
<stop offset="0.191" stop-color="white"/>
<stop offset="0.4831" stop-color="#CECEDB"/>
<stop offset="0.7528" stop-color="#B3B3C6"/>
<stop offset="0.9944" stop-color="#828282"/>
</linearGradient>
<linearGradient id="paint2_linear" x1="413.512" y1="213.417" x2="413.512" y2="204.98" gradientUnits="userSpaceOnUse">
<stop stop-color="#CF0000"/>
<stop offset="0.9944" stop-color="#FF6D00"/>
</linearGradient>
<linearGradient id="paint3_linear" x1="413.511" y1="201.698" x2="413.511" y2="217.402" gradientUnits="userSpaceOnUse">
<stop stop-color="#FFF030"/>
<stop offset="0.9944" stop-color="#FFAE00"/>
</linearGradient>
<linearGradient id="paint4_linear" x1="413.511" y1="206.62" x2="413.511" y2="210.136" gradientUnits="userSpaceOnUse">
<stop stop-color="white"/>
<stop offset="0.4971" stop-color="#FFE3A9"/>
<stop offset="0.9944" stop-color="#FFC957"/>
</linearGradient>
<linearGradient id="paint5_linear" x1="464.529" y1="168.103" x2="406.65" y2="110.223" gradientUnits="userSpaceOnUse">
<stop stop-color="#585868"/>
<stop offset="1" stop-color="#494949"/>
</linearGradient>
<linearGradient id="paint6_linear" x1="410.255" y1="113.827" x2="468.127" y2="171.699" gradientUnits="userSpaceOnUse">
<stop stop-color="#7D7D99"/>
<stop offset="1" stop-color="#494949"/>
</linearGradient>
<radialGradient id="paint7_radial" cx="0" cy="0" r="1" gradientUnits="userSpaceOnUse" gradientTransform="translate(486.585 172.697) scale(82.7344)">
<stop stop-color="white"/>
<stop offset="0.2809" stop-color="#CECEDB"/>
<stop offset="0.6404" stop-color="#BDBDCF"/>
<stop offset="1" stop-color="#9A9AB1"/>
</radialGradient>
<linearGradient id="paint8_linear" x1="437.391" y1="124.658" x2="437.391" y2="93.3832" gradientUnits="userSpaceOnUse">
<stop stop-color="#CECEDB"/>
<stop offset="1" stop-color="#EEEEEE"/>
</linearGradient>
<linearGradient id="paint9_linear" x1="409.866" y1="135.667" x2="432.481" y2="204.031" gradientUnits="userSpaceOnUse">
<stop stop-color="white"/>
<stop offset="1" stop-color="#CECEDB"/>
</linearGradient>
<linearGradient id="paint10_linear" x1="414.919" y1="194.372" x2="418.559" y2="173.056" gradientUnits="userSpaceOnUse">
<stop stop-color="white"/>
<stop offset="1" stop-color="#BDBDCF"/>
</linearGradient>
<linearGradient id="paint11_linear" x1="405.943" y1="134.6" x2="425.887" y2="134.6" gradientUnits="userSpaceOnUse">
<stop stop-color="#7D7D99"/>
<stop offset="1" stop-color="#CECEDB"/>
</linearGradient>
<linearGradient id="paint12_linear" x1="405.943" y1="142.305" x2="425.887" y2="142.305" gradientUnits="userSpaceOnUse">
<stop stop-color="#7D7D99"/>
<stop offset="1" stop-color="#CECEDB"/>
</linearGradient>
<linearGradient id="paint13_linear" x1="408.564" y1="142.661" x2="421.369" y2="155.466" gradientUnits="userSpaceOnUse">
<stop stop-color="#7D7D99"/>
<stop offset="1" stop-color="#CECEDB"/>
</linearGradient>
<linearGradient id="paint14_linear" x1="425.642" y1="193.738" x2="426.728" y2="189.684" gradientUnits="userSpaceOnUse">
<stop offset="0.0056" stop-color="white"/>
<stop offset="1" stop-color="#B6B6B6"/>
</linearGradient>
<linearGradient id="paint15_linear" x1="425.642" y1="193.54" x2="426.578" y2="190.047" gradientUnits="userSpaceOnUse">
<stop offset="0.0056" stop-color="#B6B6B6"/>
<stop offset="0.3669" stop-color="#9D9D9D"/>
<stop offset="0.7432" stop-color="#898989"/>
<stop offset="1" stop-color="#828282"/>
</linearGradient>
<linearGradient id="paint16_linear" x1="425.646" y1="192.634" x2="426.374" y2="189.916" gradientUnits="userSpaceOnUse">
<stop offset="0.0056" stop-color="#99FF66"/>
<stop offset="0.2358" stop-color="#68DE56"/>
<stop offset="0.4783" stop-color="#3BC147"/>
<stop offset="0.6954" stop-color="#1BAB3C"/>
<stop offset="0.8767" stop-color="#079E35"/>
<stop offset="1" stop-color="#009933"/>
</linearGradient>
<linearGradient id="paint17_linear" x1="425.606" y1="192.417" x2="426.41" y2="189.803" gradientUnits="userSpaceOnUse">
<stop offset="0.0056" stop-color="#33CC33"/>
<stop offset="0.3585" stop-color="#1BB433"/>
<stop offset="0.7397" stop-color="#07A033"/>
<stop offset="1" stop-color="#009933"/>
</linearGradient>
<linearGradient id="paint18_linear" x1="425.645" y1="189.999" x2="425.177" y2="191.744" gradientUnits="userSpaceOnUse">
<stop stop-color="white"/>
<stop offset="0.0907" stop-color="#E8F7D6"/>
<stop offset="0.2274" stop-color="#C8ED9E"/>
<stop offset="0.3649" stop-color="#ADE46D"/>
<stop offset="0.5002" stop-color="#97DC46"/>
<stop offset="0.6328" stop-color="#85D627"/>
<stop offset="0.7621" stop-color="#79D212"/>
<stop offset="0.8863" stop-color="#72D004"/>
<stop offset="1" stop-color="#6FCF00"/>
</linearGradient>
</defs>
</svg>
