<svg width="129" height="70" viewBox="0 0 129 70" fill="none" xmlns="http://www.w3.org/2000/svg">
<rect width="129" height="70" rx="13" fill="#0F0073"/>
<path fill-rule="evenodd" clip-rule="evenodd" d="M18.1706 43.9167V45.0243C18.1706 52.4295 20.6901 55.7652 28.9976 55.7652H30.3596C38.6672 55.7652 41.1867 51.7624 41.1867 45.0243V43.7567C41.1867 30.2137 21.2349 36.2846 21.2349 26.0107V23.4089C21.2349 19.6728 22.4605 17.3379 27.2953 17.3379H31.381C36.2158 17.3379 37.4414 19.6728 37.4414 23.4089V32.5205C39.1373 33.3321 40.7144 34.3779 41.9535 35.8209C43.5546 37.6854 44.5915 40.2131 44.5915 43.7567V45.0243C44.5915 53.3635 40.3015 58.7672 30.3596 58.7673H28.9976C19.0558 58.7673 14.7658 54.0306 14.7658 45.0243V43.917C14.2941 43.4713 14 42.8425 14 42.1462C14 40.796 15.1059 39.6997 16.4681 39.6997C17.8302 39.6997 18.9361 40.796 18.9361 42.1462C18.9361 42.8423 18.6421 43.471 18.1706 43.9167ZM31.7215 52.4295H27.6358C22.801 52.4295 21.5753 50.0945 21.5753 46.3586V37.2274C17.6885 35.3755 14.4253 32.297 14.4253 26.0107V24.7431C14.4253 16.4038 18.7154 11 28.6572 11H30.0191C39.9609 11 44.251 15.7367 44.251 24.7431V25.8578C44.7226 26.3039 45.0168 26.9333 45.0168 27.6301C45.0168 28.9816 43.9109 30.0787 42.5487 30.0787C41.1866 30.0787 40.0807 28.9816 40.0807 27.6301C40.0807 26.9334 40.3747 26.3042 40.8462 25.8581V24.7431C40.8462 17.3379 38.3267 14.0022 30.0191 14.0022H28.6572C20.3496 14.0022 17.8301 18.0051 17.8301 24.7431V26.0107C17.8301 39.5536 37.7819 33.4827 37.7819 43.7567V46.3586C37.7819 50.0945 36.5563 52.4295 31.7215 52.4295ZM24.9802 38.5547L24.98 46.3586C24.98 48.4267 25.6611 49.4273 27.6358 49.4273H31.7215C33.6963 49.4273 34.3772 48.4267 34.3772 46.3586V43.7567C34.3772 40.7425 29.7679 40.1172 24.9802 38.5547ZM34.0359 31.1865L34.0367 23.4089C34.0367 21.3407 33.3558 20.34 31.381 20.34H27.2953C25.3206 20.34 24.6396 21.3407 24.6396 23.4089V26.0107C24.6396 28.9927 29.2484 29.6168 34.0359 31.1865Z" fill="url(#paint0_linear)"/>
<path fill-rule="evenodd" clip-rule="evenodd" d="M66.145 38.8646C64.9949 38.8646 63.9844 38.6616 63.1131 38.2554C62.242 37.8494 61.5667 37.2704 61.0876 36.5186C60.6085 35.7669 60.3689 34.8985 60.3689 33.9135V33.2395C60.3689 33.153 60.3994 33.0796 60.4604 33.0191C60.5213 32.9587 60.5954 32.9284 60.6826 32.9284H63.0348C63.1218 32.9284 63.1959 32.9587 63.2569 33.0191C63.3179 33.0796 63.3484 33.153 63.3484 33.2395V33.7579C63.3484 34.501 63.6098 35.1058 64.1325 35.5725C64.6552 36.0391 65.3609 36.2724 66.2495 36.2724C67.0684 36.2724 67.6957 36.065 68.1313 35.6503C68.5669 35.2355 68.7847 34.6911 68.7847 34.0171C68.7847 33.5505 68.6627 33.1487 68.4188 32.8117C68.1748 32.4747 67.8307 32.1637 67.3864 31.8786C66.9421 31.5934 66.2582 31.2089 65.3347 30.725C64.2719 30.172 63.4181 29.6795 62.7734 29.2474C62.1287 28.8154 61.5842 28.2624 61.1399 27.5884C60.6956 26.9144 60.4734 26.0936 60.4734 25.1258C60.4734 23.6395 60.9744 22.4644 61.9762 21.6003C62.9781 20.7363 64.2979 20.3042 65.9358 20.3042C67.0684 20.3042 68.0703 20.5159 68.9415 20.9393C69.8127 21.3627 70.4835 21.9632 70.954 22.7409C71.4244 23.5186 71.6596 24.4086 71.6596 25.4109V25.9553C71.6596 26.0417 71.6291 26.1151 71.5682 26.1757C71.5071 26.2361 71.4331 26.2664 71.346 26.2664H68.9937C68.9066 26.2664 68.8326 26.2361 68.7715 26.1757C68.7106 26.1151 68.6801 26.0417 68.6801 25.9553V25.4627C68.6801 24.7196 68.4275 24.1062 67.9221 23.6223C67.4169 23.1384 66.7373 22.8965 65.8836 22.8965C65.1343 22.8965 64.542 23.0908 64.1063 23.4797C63.6707 23.8685 63.4529 24.4086 63.4529 25.0999C63.4529 25.5665 63.5662 25.9639 63.7927 26.2922C64.0192 26.6206 64.3634 26.9317 64.8251 27.2255C65.2868 27.5193 65.9881 27.8995 66.929 28.366C68.1835 29.0746 69.107 29.6277 69.6994 30.0251C70.2919 30.4226 70.7927 30.9367 71.2022 31.5674C71.6117 32.1982 71.8164 32.9716 71.8164 33.8875C71.8164 35.4083 71.3024 36.618 70.2744 37.5167C69.2463 38.4153 67.8699 38.8646 66.145 38.8646Z" fill="white"/>
<path fill-rule="evenodd" clip-rule="evenodd" d="M83.4469 38.6574C83.2552 38.6574 83.1332 38.571 83.081 38.3982L82.4014 35.6245C82.384 35.5553 82.3404 35.5207 82.2708 35.5207H76.8867C76.8171 35.5207 76.7735 35.5553 76.7561 35.6245L76.1027 38.3982C76.0504 38.571 75.9284 38.6574 75.7368 38.6574H73.2538C73.0273 38.6574 72.9402 38.545 72.9925 38.3204L77.7493 20.7709C77.8015 20.5981 77.9234 20.5117 78.1151 20.5117H81.0947C81.2863 20.5117 81.4082 20.5981 81.4605 20.7709L86.2172 38.3204L86.2434 38.424C86.2434 38.5796 86.1476 38.6574 85.9559 38.6574H83.4469ZM77.3833 33.0063C77.3659 33.0581 77.3747 33.097 77.4094 33.123C77.4443 33.1488 77.4792 33.1619 77.514 33.1619H81.6435C81.6783 33.1619 81.7132 33.1488 81.7481 33.123C81.7828 33.097 81.7915 33.0581 81.7742 33.0063L79.6311 24.5038C79.6136 24.4519 79.5875 24.426 79.5526 24.426C79.5177 24.426 79.4917 24.4519 79.4742 24.5038L77.3833 33.0063Z" fill="white"/>
<path fill-rule="evenodd" clip-rule="evenodd" d="M99.7556 33.6803C99.7556 35.2875 99.246 36.5187 98.2267 37.3742C97.2073 38.2297 95.8788 38.6574 94.2409 38.6574H88.674C88.5869 38.6574 88.5129 38.6271 88.4518 38.5667C88.3908 38.5061 88.3604 38.4328 88.3604 38.3463V20.8228C88.3604 20.7364 88.3908 20.663 88.4518 20.6024C88.5129 20.542 88.5869 20.5117 88.674 20.5117H93.9273C95.6871 20.5117 97.0593 20.9222 98.0437 21.7431C99.0282 22.564 99.5204 23.7866 99.5204 25.411C99.5204 27.1911 98.8148 28.4526 97.4034 29.1957C97.3163 29.2475 97.3076 29.2994 97.3773 29.3513C98.9629 30.198 99.7556 31.6411 99.7556 33.6803ZM91.5229 23.104C91.4357 23.104 91.3921 23.1472 91.3921 23.2336V28.0552C91.3921 28.1416 91.4357 28.1848 91.5229 28.1848H93.9534C94.7724 28.1848 95.4127 27.9645 95.8744 27.5237C96.3362 27.083 96.5671 26.4652 96.5671 25.6702C96.5671 24.8581 96.3362 24.2273 95.8744 23.778C95.4127 23.3286 94.7724 23.104 93.9534 23.104H91.5229ZM94.1364 36.0392C94.9379 36.0392 95.5696 35.7973 96.0312 35.3134C96.493 34.8295 96.7239 34.1556 96.7239 33.2915C96.7239 32.4274 96.4886 31.7491 96.0182 31.2566C95.5477 30.764 94.9118 30.5178 94.1103 30.5178H91.5229C91.4357 30.5178 91.3921 30.561 91.3921 30.6474V35.9096C91.3921 35.996 91.4357 36.0392 91.5229 36.0392H94.1364Z" fill="white"/>
<path fill-rule="evenodd" clip-rule="evenodd" d="M107.78 38.8906C106.63 38.8906 105.615 38.6572 104.735 38.1907C103.855 37.724 103.175 37.0631 102.696 36.2076C102.217 35.3521 101.978 34.3628 101.978 33.2395V25.9294C101.978 24.8233 102.217 23.8426 102.696 22.9872C103.175 22.1317 103.855 21.4707 104.735 21.0041C105.615 20.5375 106.63 20.3042 107.78 20.3042C108.947 20.3042 109.971 20.5375 110.851 21.0041C111.731 21.4707 112.415 22.1317 112.903 22.9872C113.39 23.8426 113.634 24.8233 113.634 25.9294V33.2395C113.634 34.3628 113.39 35.3521 112.903 36.2076C112.415 37.0631 111.731 37.724 110.851 38.1907C109.971 38.6572 108.947 38.8906 107.78 38.8906ZM107.78 36.2983C108.633 36.2983 109.317 36.0262 109.831 35.4818C110.345 34.9373 110.602 34.2331 110.602 33.3691V25.8516C110.602 24.9703 110.345 24.2573 109.831 23.713C109.317 23.1686 108.633 22.8965 107.78 22.8965C106.943 22.8965 106.273 23.1686 105.767 23.713C105.262 24.2573 105.009 24.9703 105.009 25.8516V33.3691C105.009 34.2331 105.262 34.9373 105.767 35.4818C106.273 36.0262 106.943 36.2983 107.78 36.2983Z" fill="white"/>
<path fill-rule="evenodd" clip-rule="evenodd" d="M64.9719 42.2922C65.0059 42.2513 65.0467 42.231 65.0942 42.231H65.8681C65.9359 42.231 65.9699 42.2649 65.9699 42.3329V49.2694C65.9699 49.3375 65.9359 49.3715 65.8681 49.3715H65.0942C65.0263 49.3715 64.9923 49.3375 64.9923 49.2694V44.0467C64.9923 44.0263 64.9855 44.0126 64.9719 44.0059C64.9584 43.9991 64.9482 44.0059 64.9414 44.0263L63.4852 46.25C63.4581 46.2909 63.4173 46.3113 63.363 46.3113H62.9761C62.9286 46.3113 62.8878 46.2909 62.854 46.25L61.3876 44.0467C61.3807 44.0263 61.3706 44.0195 61.357 44.0263C61.3434 44.0331 61.3367 44.0467 61.3367 44.0671V49.2694C61.3367 49.3375 61.3027 49.3715 61.2348 49.3715H60.4609C60.393 49.3715 60.3591 49.3375 60.3591 49.2694V42.3329C60.3591 42.2649 60.393 42.231 60.4609 42.231H61.2348C61.2892 42.231 61.3299 42.2513 61.357 42.2922L63.139 44.9648C63.1458 44.9716 63.156 44.975 63.1696 44.975C63.1832 44.975 63.1934 44.9716 63.2001 44.9648L64.9719 42.2922Z" fill="white"/>
<path fill-rule="evenodd" clip-rule="evenodd" d="M69.7885 49.4531C69.2862 49.4531 68.8483 49.3255 68.4749 49.0706C68.1016 48.8156 67.8402 48.4602 67.6909 48.0046C67.5687 47.6373 67.5076 47.2226 67.5076 46.7601C67.5076 46.2772 67.5653 45.8692 67.6807 45.536C67.83 45.0871 68.0914 44.7353 68.4647 44.4802C68.8381 44.2252 69.2828 44.0977 69.7987 44.0977C70.2876 44.0977 70.7135 44.2252 71.0767 44.4802C71.4398 44.7353 71.6995 45.0837 71.8557 45.5258C71.9779 45.8726 72.039 46.2807 72.039 46.7499C72.039 47.2259 71.9779 47.6442 71.8557 48.0046C71.7064 48.4602 71.4484 48.8156 71.0818 49.0706C70.7152 49.3255 70.2841 49.4531 69.7885 49.4531ZM69.7885 48.6064C70.0601 48.6064 70.2977 48.5299 70.5014 48.3769C70.7051 48.2239 70.851 48.008 70.9393 47.7291C71.0139 47.4707 71.0512 47.1511 71.0512 46.7703C71.0512 46.3894 71.0173 46.0732 70.9495 45.8216C70.8612 45.5428 70.7152 45.3268 70.5116 45.1738C70.3079 45.0208 70.0601 44.9443 69.7682 44.9443C69.4899 44.9443 69.2489 45.0208 69.0452 45.1738C68.8416 45.3268 68.6956 45.5428 68.6074 45.8216C68.5327 46.0596 68.4953 46.3759 68.4953 46.7703C68.4953 47.1647 68.5327 47.4843 68.6074 47.7291C68.6888 48.008 68.8331 48.2239 69.0401 48.3769C69.2471 48.5299 69.4966 48.6064 69.7885 48.6064Z" fill="white"/>
<path fill-rule="evenodd" clip-rule="evenodd" d="M77.6599 45.5258C77.7685 45.8726 77.8228 46.284 77.8228 46.7601C77.8228 47.2701 77.7583 47.7053 77.6293 48.0658C77.48 48.5078 77.2441 48.8496 76.9217 49.0909C76.5992 49.3324 76.1935 49.4531 75.7048 49.4531C75.4672 49.4531 75.2466 49.4055 75.0429 49.3103C74.8392 49.2151 74.6627 49.0824 74.5133 48.9125C74.4998 48.8988 74.4879 48.8954 74.4778 48.9023C74.4676 48.909 74.4625 48.9192 74.4625 48.9328V49.2694C74.4625 49.3375 74.4285 49.3715 74.3606 49.3715H73.5867C73.5189 49.3715 73.4849 49.3375 73.4849 49.2694V42.3329C73.4849 42.2649 73.5189 42.231 73.5867 42.231H74.3606C74.4285 42.231 74.4625 42.2649 74.4625 42.3329V44.6077C74.4625 44.6214 74.4676 44.6315 74.4778 44.6383C74.4879 44.6452 74.4998 44.6417 74.5133 44.6281C74.6627 44.4582 74.8409 44.3272 75.048 44.2354C75.255 44.1436 75.4739 44.0977 75.7048 44.0977C76.2139 44.0977 76.6314 44.2235 76.9573 44.4751C77.2831 44.7268 77.5174 45.077 77.6599 45.5258ZM76.5805 48.0454C76.7502 47.7258 76.8351 47.3042 76.8351 46.7805C76.8351 46.2229 76.7264 45.774 76.5093 45.434C76.3124 45.1075 76.0103 44.9443 75.6029 44.9443C75.2228 44.9443 74.9343 45.1178 74.7374 45.4646C74.5608 45.7774 74.4727 46.2126 74.4727 46.7703C74.4727 47.328 74.5541 47.7563 74.717 48.0556C74.9207 48.4228 75.2194 48.6064 75.6131 48.6064C76.0612 48.6064 76.3837 48.4194 76.5805 48.0454Z" fill="white"/>
<path fill-rule="evenodd" clip-rule="evenodd" d="M80.0302 43.3633C79.7872 43.3633 79.5877 43.3021 79.4317 43.1796C79.2755 43.0573 79.1975 42.9008 79.1975 42.7104C79.1975 42.52 79.2755 42.3636 79.4317 42.2412C79.5877 42.1188 79.7872 42.0576 80.0302 42.0576C80.273 42.0576 80.4725 42.1188 80.6285 42.2412C80.7847 42.3636 80.8628 42.52 80.8628 42.7104C80.8628 42.9008 80.7847 43.0573 80.6285 43.1796C80.4725 43.3021 80.273 43.3633 80.0302 43.3633ZM79.5098 49.3614C79.423 49.3614 79.3796 49.3274 79.3796 49.2593V44.2814C79.3796 44.2133 79.423 44.1793 79.5098 44.1793H80.4985C80.5852 44.1793 80.6285 44.2133 80.6285 44.2814V49.2593C80.6285 49.3274 80.5852 49.3614 80.4985 49.3614H79.5098Z" fill="white"/>
<path fill-rule="evenodd" clip-rule="evenodd" d="M82.1099 49.3715C82.042 49.3715 82.0081 49.3375 82.0081 49.2694V42.3329C82.0081 42.2649 82.042 42.231 82.1099 42.231H82.8838C82.9517 42.231 82.9857 42.2649 82.9857 42.3329V49.2694C82.9857 49.3375 82.9517 49.3715 82.8838 49.3715H82.1099Z" fill="white"/>
<path fill-rule="evenodd" clip-rule="evenodd" d="M88.7491 46.1277C88.7762 46.4065 88.7864 46.7192 88.7796 47.0661C88.7796 47.1341 88.7456 47.1681 88.6777 47.1681H85.4294C85.4023 47.1681 85.3887 47.1817 85.3887 47.2089C85.3887 47.4401 85.409 47.6169 85.4498 47.7394C85.5244 48.0113 85.6755 48.2239 85.9029 48.3769C86.1303 48.5299 86.4171 48.6064 86.7633 48.6064C87.2658 48.6064 87.6527 48.3989 87.9242 47.9842C87.9581 47.9162 88.0023 47.9059 88.0566 47.9535L88.637 48.3412C88.6845 48.382 88.6947 48.4262 88.6676 48.4738C88.4775 48.7798 88.2076 49.0213 87.858 49.1981C87.5084 49.3748 87.1129 49.4633 86.6717 49.4633C86.1762 49.4633 85.7587 49.3544 85.4192 49.1369C85.0798 48.9192 84.8252 48.6099 84.6554 48.2086C84.4925 47.8074 84.4111 47.3211 84.4111 46.7499C84.4111 46.2534 84.4485 45.876 84.5231 45.6176C84.6454 45.1484 84.8897 44.7777 85.2563 44.5058C85.6229 44.2337 86.0675 44.0977 86.5902 44.0977C87.2759 44.0977 87.7885 44.2694 88.1279 44.6128C88.4673 44.9563 88.6743 45.4612 88.7491 46.1277ZM86.5902 44.9443C86.2983 44.9443 86.0573 45.0175 85.8673 45.1636C85.6772 45.3099 85.5482 45.5054 85.4804 45.7502C85.4327 45.8998 85.4023 46.0902 85.3887 46.3214C85.3887 46.3487 85.4023 46.3623 85.4294 46.3623H87.7613C87.7885 46.3623 87.802 46.3487 87.802 46.3214C87.7885 46.097 87.7681 45.9304 87.741 45.8216C87.6731 45.5564 87.539 45.3439 87.3387 45.184C87.1384 45.0243 86.8889 44.9443 86.5902 44.9443Z" fill="white"/>
<path fill-rule="evenodd" clip-rule="evenodd" d="M92.5779 49.3715C92.51 49.3715 92.4761 49.3375 92.4761 49.2694V42.3329C92.4761 42.2649 92.51 42.231 92.5779 42.231H93.3518C93.4197 42.231 93.4536 42.2649 93.4536 42.3329V49.2694C93.4536 49.3375 93.4197 49.3715 93.3518 49.3715H92.5779Z" fill="white"/>
<path fill-rule="evenodd" clip-rule="evenodd" d="M99.8078 42.231C99.8758 42.231 99.9097 42.2649 99.9097 42.3329V42.9858C99.9097 43.0538 99.8758 43.0878 99.8078 43.0878H97.8528C97.8256 43.0878 97.812 43.1014 97.812 43.1287V49.2694C97.812 49.3375 97.7781 49.3715 97.7102 49.3715H96.9363C96.8684 49.3715 96.8345 49.3375 96.8345 49.2694V43.1287C96.8345 43.1014 96.8209 43.0878 96.7937 43.0878H94.9302C94.8624 43.0878 94.8284 43.0538 94.8284 42.9858V42.3329C94.8284 42.2649 94.8624 42.231 94.9302 42.231H99.8078Z" fill="white"/>
<defs>
<linearGradient id="paint0_linear" x1="36.0757" y1="52.4255" x2="13.0001" y2="28.2707" gradientUnits="userSpaceOnUse">
<stop stop-color="#4FD02D"/>
<stop offset="1" stop-color="#FFDF00"/>
</linearGradient>
</defs>
</svg>
