<?xml version="1.0" encoding="UTF-8"?>
<svg width="100px" height="48px" viewBox="0 0 100 48" version="1.1" xmlns="http://www.w3.org/2000/svg" xmlns:xlink="http://www.w3.org/1999/xlink">
    <!-- Generator: Sketch 52.6 (67491) - http://www.bohemiancoding.com/sketch -->
    <title>Group 3</title>
    <desc>Created with Sketch.</desc>
    <defs>
        <linearGradient x1="71.173429%" y1="86.7235226%" x2="27.8488177%" y2="16.8809812%" id="linearGradient-1">
            <stop stop-color="#4FD02D" offset="0%"></stop>
            <stop stop-color="#FFDF00" offset="100%"></stop>
        </linearGradient>
    </defs>
    <g id="-" stroke="none" stroke-width="1" fill="none" fill-rule="evenodd">
        <g id="Hlavni-menu" transform="translate(-17.000000, -11.000000)">
            <g id="Group-3" transform="translate(17.000000, 11.000000)">
                <path d="M4.17061224,32.9167347 L4.17061224,34.0242612 C4.17061224,41.4294857 6.69012245,44.7651918 14.997649,44.7651918 L16.3595755,44.7651918 C24.6672,44.7651918 27.1867102,40.7623837 27.1867102,34.0242612 L27.1867102,32.7566694 C27.1867102,19.2137143 7.23487347,25.2846367 7.23487347,15.0106776 L7.23487347,12.4088816 C7.23487347,8.67281633 8.46053878,6.33786122 13.2953143,6.33786122 L17.3809959,6.33786122 C22.2157714,6.33786122 23.4414367,8.67281633 23.4414367,12.4088816 L23.4414367,21.5204571 C25.1373061,22.3321469 26.714449,23.3778612 27.9535347,24.820898 C29.5545796,26.6853551 30.5914776,29.2130939 30.5914776,32.7566694 L30.5914776,34.0242612 C30.5914776,42.3635265 26.3014531,47.767249 16.3595755,47.7673469 L14.997649,47.7673469 C5.05577143,47.7673469 0.765844898,43.0306286 0.765844898,34.0242612 L0.765844898,32.9170286 C0.294073469,32.4713143 5.32907052e-15,31.8425143 5.32907052e-15,31.1462204 C5.32907052e-15,29.795951 1.10586122,28.6996898 2.46808163,28.6996898 C3.83020408,28.6996898 4.93606531,29.795951 4.93606531,31.1462204 C4.93606531,31.8423184 4.6420898,32.4710204 4.17061224,32.9167347 Z M17.721502,41.4294857 L13.6358204,41.4294857 C8.8010449,41.4294857 7.57528163,39.0945306 7.57528163,35.3585633 L7.57528163,26.2273959 C3.68845714,24.3754776 0.425338776,21.2970122 0.425338776,15.0106776 L0.425338776,13.7430857 C0.425338776,5.40382041 4.71536327,2.13162821e-14 14.6572408,2.13162821e-14 L16.0190694,2.13162821e-14 C25.9609469,2.13162821e-14 30.2509714,4.73671837 30.2509714,13.7430857 L30.2509714,14.8577633 C30.7226449,15.3038694 31.0168163,15.9332571 31.0168163,16.6301388 C31.0168163,17.9815837 29.9108571,19.0787265 28.5487347,19.0787265 C27.1866122,19.0787265 26.0806531,17.9815837 26.0806531,16.6301388 C26.0806531,15.9333551 26.3747265,15.3041633 26.8462041,14.8580571 L26.8462041,13.7430857 C26.8462041,6.33786122 24.3266939,3.0021551 16.0190694,3.0021551 L14.6572408,3.0021551 C6.34961633,3.0021551 3.83010612,7.00506122 3.83010612,13.7430857 L3.83010612,15.0106776 C3.83010612,28.5536327 23.7819429,22.4827102 23.7819429,32.7566694 L23.7819429,35.3585633 C23.7819429,39.0945306 22.5562776,41.4294857 17.721502,41.4294857 Z M10.9802449,27.5547429 L10.980049,35.3585633 C10.980049,37.4266776 11.6610612,38.4273306 13.6358204,38.4273306 L17.721502,38.4273306 C19.6962612,38.4273306 20.3771755,37.4266776 20.3771755,35.3585633 L20.3771755,32.7566694 C20.3771755,29.7424653 15.767902,29.1171918 10.9802449,27.5547429 Z M20.0358857,20.1865469 L20.0366694,12.4088816 C20.0366694,10.3406694 19.3557551,9.34001633 17.3809959,9.34001633 L13.2953143,9.34001633 C11.3205551,9.34001633 10.6396408,10.3406694 10.6396408,12.4088816 L10.6396408,15.0106776 C10.6396408,17.9926531 15.2484245,18.616849 20.0358857,20.1865469 Z" id="Fill-1" fill="url(#linearGradient-1)"></path>
                <g id="Group" transform="translate(46.040816, 8.816327)" fill="#FFFFFF">
                    <path d="M6.10413061,19.0480653 C4.9540898,19.0480653 3.94354286,18.8449959 3.07229388,18.4388571 C2.20114286,18.0328163 1.5259102,17.4538776 1.04679184,16.7020408 C0.567673469,15.950302 0.328065306,15.0818939 0.328065306,14.0969143 L0.328065306,13.4229551 C0.328065306,13.3364571 0.358530612,13.2630857 0.419559184,13.2025469 C0.480489796,13.1421061 0.554546939,13.1118367 0.641730612,13.1118367 L2.99392653,13.1118367 C3.08101224,13.1118367 3.15506939,13.1421061 3.21609796,13.2025469 C3.27702857,13.2630857 3.30759184,13.3364571 3.30759184,13.4229551 L3.30759184,13.9413551 C3.30759184,14.6844735 3.56894694,15.2892735 4.09165714,15.755951 C4.61436735,16.2225306 5.32006531,16.4558694 6.20865306,16.4558694 C7.02759184,16.4558694 7.65482449,16.2484898 8.09044898,15.8337306 C8.52607347,15.4189714 8.74383673,14.8745143 8.74383673,14.2005551 C8.74383673,13.7339755 8.62187755,13.3321469 8.37795918,12.9951673 C8.13394286,12.6581878 7.7899102,12.3471673 7.34556735,12.0620082 C6.90122449,11.776849 6.21737143,11.3923592 5.2939102,10.9084408 C4.23105306,10.3554612 3.37724082,9.86292245 2.73257143,9.43082449 C2.08790204,8.99882449 1.54334694,8.4458449 1.09910204,7.77188571 C0.654759184,7.09782857 0.432587755,6.27702857 0.432587755,5.30919184 C0.432587755,3.8229551 0.93355102,2.64783673 1.93537959,1.78373878 C2.93730612,0.919738776 4.2571102,0.487640816 5.89498776,0.487640816 C7.02759184,0.487640816 8.02942041,0.699330612 8.90066939,1.1227102 C9.77182041,1.54618776 10.4426449,2.14667755 10.9131429,2.92437551 C11.3835429,3.70207347 11.6187429,4.59203265 11.6187429,5.59435102 L11.6187429,6.1387102 C11.6187429,6.2251102 11.5882776,6.29857959 11.5273469,6.35911837 C11.4663184,6.41955918 11.3922612,6.44982857 11.3051755,6.44982857 L8.95288163,6.44982857 C8.86579592,6.44982857 8.79173878,6.41955918 8.7307102,6.35911837 C8.66977959,6.29857959 8.63931429,6.2251102 8.63931429,6.1387102 L8.63931429,5.64617143 C8.63931429,4.90305306 8.38667755,4.28963265 7.88130612,3.80571429 C7.37603265,3.32179592 6.6964898,3.07993469 5.84277551,3.07993469 C5.09348571,3.07993469 4.50112653,3.27428571 4.06550204,3.66318367 C3.62987755,4.05198367 3.41211429,4.59203265 3.41211429,5.28333061 C3.41211429,5.7499102 3.5253551,6.14733061 3.75183673,6.4756898 C3.97841633,6.80404898 4.32254694,7.11516735 4.78422857,7.40894694 C5.24600816,7.70272653 5.94729796,8.08290612 6.88819592,8.54948571 C8.14266122,9.25802449 9.06612245,9.81110204 9.65857959,10.2085224 C10.2510367,10.6060408 10.751902,11.1201306 11.1613714,11.7508898 C11.5708408,12.381649 11.7755755,13.1550367 11.7755755,14.0709551 C11.7755755,15.5917714 11.2615837,16.8014694 10.2336,17.7001469 C9.20551837,18.5987265 7.82909388,19.0480653 6.10413061,19.0480653 Z" id="Fill-2"></path>
                    <path d="M23.4060735,18.8406857 C23.2143673,18.8406857 23.0924082,18.7542857 23.0401959,18.5814857 L22.3606531,15.8077714 C22.3432163,15.7386122 22.2996245,15.7040327 22.2299755,15.7040327 L16.8459429,15.7040327 C16.7762939,15.7040327 16.732702,15.7386122 16.7152653,15.8077714 L16.0618776,18.5814857 C16.0095673,18.7542857 15.8876082,18.8406857 15.696,18.8406857 L13.2130286,18.8406857 C12.9865469,18.8406857 12.8994612,18.7283265 12.9516735,18.5037061 L17.7084735,0.954220408 C17.7606857,0.781420408 17.8826449,0.695020408 18.074351,0.695020408 L21.0538776,0.695020408 C21.2454857,0.695020408 21.3674449,0.781420408 21.4197551,0.954220408 L26.1764571,18.5037061 L26.2026122,18.6073469 C26.2026122,18.7629061 26.1068082,18.8406857 25.915102,18.8406857 L23.4060735,18.8406857 Z M17.342498,13.1896163 C17.3251592,13.2414367 17.3338776,13.2803265 17.3686531,13.3062857 C17.4035265,13.3321469 17.4384,13.3451755 17.4731755,13.3451755 L21.6027429,13.3451755 C21.6375184,13.3451755 21.6723918,13.3321469 21.7072653,13.3062857 C21.7420408,13.2803265 21.7507592,13.2414367 21.7334204,13.1896163 L19.5902694,4.68705306 C19.5728327,4.63523265 19.5466776,4.60927347 19.5118041,4.60927347 C19.4769306,4.60927347 19.4508735,4.63523265 19.4334367,4.68705306 L17.342498,13.1896163 Z" id="Fill-3"></path>
                    <path d="M39.7149061,13.8635755 C39.7149061,15.4707918 39.2052245,16.7020408 38.1859592,17.5575184 C37.1665959,18.4129959 35.8380735,18.8406857 34.2001959,18.8406857 L28.6332735,18.8406857 C28.5461878,18.8406857 28.4721306,18.8104163 28.411102,18.7499755 C28.3500735,18.6894367 28.3196082,18.6160653 28.3196082,18.5295673 L28.3196082,1.00613878 C28.3196082,0.919738776 28.3500735,0.846269388 28.411102,0.785730612 C28.4721306,0.725289796 28.5461878,0.695020408 28.6332735,0.695020408 L33.8865306,0.695020408 C35.6463673,0.695020408 37.0185796,1.10546939 38.0029714,1.92636735 C38.9874612,2.74726531 39.4797061,3.96989388 39.4797061,5.59435102 C39.4797061,7.37436735 38.7740082,8.63588571 37.3626122,9.37900408 C37.2755265,9.43082449 37.2668082,9.48274286 37.3365551,9.53456327 C38.9221224,10.3813224 39.7149061,11.8243592 39.7149061,13.8635755 Z M31.4821224,3.28731429 C31.3949388,3.28731429 31.3513469,3.33051429 31.3513469,3.41691429 L31.3513469,8.23846531 C31.3513469,8.32486531 31.3949388,8.36806531 31.4821224,8.36806531 L33.9126857,8.36806531 C34.7316245,8.36806531 35.3719837,8.1477551 35.8336653,7.70703673 C36.2954449,7.26631837 36.5263347,6.6484898 36.5263347,5.85355102 C36.5263347,5.04137143 36.2954449,4.41061224 35.8336653,3.96127347 C35.3719837,3.51193469 34.7316245,3.28731429 33.9126857,3.28731429 L31.4821224,3.28731429 Z M34.0956735,16.2225306 C34.8971755,16.2225306 35.5288163,15.9805714 35.990498,15.4966531 C36.4522776,15.0128327 36.6831673,14.3388735 36.6831673,13.4747755 C36.6831673,12.6106776 36.4478694,11.9324082 35.9774694,11.4398694 C35.5069714,10.9473306 34.8710204,10.7010612 34.0695184,10.7010612 L31.4821224,10.7010612 C31.3949388,10.7010612 31.3513469,10.7442612 31.3513469,10.8306612 L31.3513469,16.0929306 C31.3513469,16.1793306 31.3949388,16.2225306 31.4821224,16.2225306 L34.0956735,16.2225306 Z" id="Fill-4"></path>
                    <path d="M47.7388408,19.0740245 C46.588898,19.0740245 45.5739429,18.8406857 44.6940735,18.3741061 C43.8141061,17.9074286 43.1345633,17.246498 42.6554449,16.3910204 C42.1763265,15.5355429 41.9367184,14.5462531 41.9367184,13.4229551 L41.9367184,6.11284898 C41.9367184,5.00679184 42.1763265,4.02602449 42.6554449,3.1706449 C43.1345633,2.31516735 43.8141061,1.65413878 44.6940735,1.18755918 C45.5739429,0.720979592 46.588898,0.487640816 47.7388408,0.487640816 C48.9063184,0.487640816 49.9298939,0.720979592 50.8098612,1.18755918 C51.6897306,1.65413878 52.3738776,2.31516735 52.8617143,3.1706449 C53.349551,4.02602449 53.5934694,5.00679184 53.5934694,6.11284898 L53.5934694,13.4229551 C53.5934694,14.5462531 53.349551,15.5355429 52.8617143,16.3910204 C52.3738776,17.246498 51.6897306,17.9074286 50.8098612,18.3741061 C49.9298939,18.8406857 48.9063184,19.0740245 47.7388408,19.0740245 Z M47.7388408,16.4817306 C48.5926531,16.4817306 49.2765061,16.2096 49.790498,15.6652408 C50.3045878,15.1207837 50.5615347,14.4165551 50.5615347,13.5525551 L50.5615347,6.03506939 C50.5615347,5.15373061 50.3045878,4.44078367 49.790498,3.89642449 C49.2765061,3.35206531 48.5926531,3.07993469 47.7388408,3.07993469 C46.9025633,3.07993469 46.2317388,3.35206531 45.7263673,3.89642449 C45.2210939,4.44078367 44.9684571,5.15373061 44.9684571,6.03506939 L44.9684571,13.5525551 C44.9684571,14.4165551 45.2210939,15.1207837 45.7263673,15.6652408 C46.2317388,16.2096 46.9025633,16.4817306 47.7388408,16.4817306 Z" id="Fill-5"></path>
                </g>
                <g id="Group-2" transform="translate(46.040816, 30.367347)" fill="#FFFFFF">
                    <path d="M4.93106939,0.924930612 C4.96506122,0.884081633 5.00581224,0.863706122 5.05332245,0.863706122 L5.8272,0.863706122 C5.89508571,0.863706122 5.92907755,0.897697959 5.92907755,0.965681633 L5.92907755,7.90217143 C5.92907755,7.97025306 5.89508571,8.0042449 5.8272,8.0042449 L5.05332245,8.0042449 C4.98543673,8.0042449 4.9514449,7.97025306 4.9514449,7.90217143 L4.9514449,2.67947755 C4.9514449,2.65900408 4.94468571,2.64538776 4.93106939,2.63862857 C4.91755102,2.63186939 4.90736327,2.63862857 4.90050612,2.65900408 L3.44434286,4.88277551 C3.41720816,4.92362449 3.37645714,4.944 3.32218776,4.944 L2.93524898,4.944 C2.88773878,4.944 2.84698776,4.92362449 2.81309388,4.88277551 L1.34674286,2.67947755 C1.33988571,2.65900408 1.32969796,2.6522449 1.31617959,2.65900408 C1.30256327,2.66586122 1.29580408,2.67947755 1.29580408,2.69985306 L1.29580408,7.90217143 C1.29580408,7.97025306 1.26181224,8.0042449 1.19392653,8.0042449 L0.42004898,8.0042449 C0.352163265,8.0042449 0.318269388,7.97025306 0.318269388,7.90217143 L0.318269388,0.965681633 C0.318269388,0.897697959 0.352163265,0.863706122 0.42004898,0.863706122 L1.19392653,0.863706122 C1.24829388,0.863706122 1.2890449,0.884081633 1.31617959,0.924930612 L3.0981551,3.59755102 C3.10491429,3.6043102 3.11510204,3.60773878 3.12871837,3.60773878 C3.14233469,3.60773878 3.15252245,3.6043102 3.15928163,3.59755102 L4.93106939,0.924930612 Z" id="Fill-6"></path>
                    <path d="M9.74762449,8.0858449 C9.2452898,8.0858449 8.80741224,7.95830204 8.43399184,7.70331429 C8.06066939,7.44832653 7.79931429,7.09293061 7.64992653,6.63732245 C7.52777143,6.27007347 7.4666449,5.85531429 7.4666449,5.39284898 C7.4666449,4.91000816 7.52434286,4.50200816 7.63973878,4.16875102 C7.78912653,3.71990204 8.05048163,3.36803265 8.42380408,3.11294694 C8.79722449,2.85795918 9.24186122,2.73041633 9.75781224,2.73041633 C10.2466286,2.73041633 10.6725551,2.85795918 11.0357878,3.11294694 C11.3989224,3.36803265 11.6586122,3.71647347 11.8147592,4.15856327 C11.9370122,4.50533878 11.9980408,4.91343673 11.9980408,5.38266122 C11.9980408,5.8586449 11.9370122,6.27693061 11.8147592,6.63732245 C11.6654694,7.09293061 11.4074449,7.44832653 11.0408816,7.70331429 C10.6743184,7.95830204 10.2432,8.0858449 9.74762449,8.0858449 Z M9.74762449,7.23918367 C10.0191673,7.23918367 10.2568163,7.16267755 10.4604735,7.00966531 C10.6641306,6.85665306 10.8100898,6.64075102 10.898351,6.36186122 C10.9729959,6.1034449 11.0103184,5.78390204 11.0103184,5.40303673 C11.0103184,5.02217143 10.9764245,4.70595918 10.9085388,4.4544 C10.8202776,4.1755102 10.6743184,3.95960816 10.4706612,3.80659592 C10.2670041,3.65358367 10.0191673,3.57707755 9.72724898,3.57707755 C9.44894694,3.57707755 9.20796735,3.65358367 9.0043102,3.80659592 C8.80065306,3.95960816 8.65469388,4.1755102 8.56643265,4.4544 C8.49178776,4.69234286 8.45436735,5.00865306 8.45436735,5.40303673 C8.45436735,5.79742041 8.49178776,6.11706122 8.56643265,6.36186122 C8.64783673,6.64075102 8.79213061,6.85665306 8.99921633,7.00966531 C9.20620408,7.16267755 9.45570612,7.23918367 9.74762449,7.23918367 Z" id="Fill-7"></path>
                    <path d="M17.6190367,4.15856327 C17.7276735,4.50533878 17.7819429,4.91676735 17.7819429,5.39284898 C17.7819429,5.90282449 17.7174857,6.33805714 17.5884735,6.69854694 C17.4391837,7.14053878 17.203298,7.48231837 16.8808163,7.7236898 C16.5583347,7.96515918 16.1526857,8.0858449 15.6639673,8.0858449 C15.4263184,8.0858449 15.2057143,8.03823673 15.0020571,7.94302041 C14.7984,7.84780408 14.6218776,7.71516735 14.4724898,7.54520816 C14.4589714,7.53159184 14.4470204,7.52816327 14.4369306,7.53502041 C14.4267429,7.54177959 14.421649,7.55196735 14.421649,7.56558367 L14.421649,7.90217143 C14.421649,7.97025306 14.3876571,8.0042449 14.3197714,8.0042449 L13.5458939,8.0042449 C13.4780082,8.0042449 13.4440163,7.97025306 13.4440163,7.90217143 L13.4440163,0.965681633 C13.4440163,0.897697959 13.4780082,0.863706122 13.5458939,0.863706122 L14.3197714,0.863706122 C14.3876571,0.863706122 14.421649,0.897697959 14.421649,0.965681633 L14.421649,3.2404898 C14.421649,3.25410612 14.4267429,3.26429388 14.4369306,3.27105306 C14.4470204,3.2779102 14.4589714,3.27448163 14.4724898,3.26086531 C14.6218776,3.09090612 14.8000653,2.95993469 15.007151,2.86814694 C15.2141388,2.77635918 15.4330776,2.73041633 15.6639673,2.73041633 C16.1730612,2.73041633 16.5905633,2.85629388 16.9164735,3.10785306 C17.2422857,3.3595102 17.4765061,3.70971429 17.6190367,4.15856327 Z M16.5396245,6.67817143 C16.7093878,6.35853061 16.7942204,5.93691429 16.7942204,5.41322449 C16.7942204,4.85564082 16.6855837,4.40679184 16.4684082,4.06677551 C16.2715102,3.74027755 15.9694041,3.57707755 15.5620898,3.57707755 C15.1819102,3.57707755 14.8934204,3.75056327 14.6965224,4.09733878 C14.52,4.41012245 14.4318367,4.8453551 14.4318367,5.40303673 C14.4318367,5.96071837 14.5132408,6.38909388 14.6761469,6.68835918 C14.8798041,7.0555102 15.1785796,7.23918367 15.5722776,7.23918367 C16.0203429,7.23918367 16.3428245,7.05217959 16.5396245,6.67817143 Z" id="Fill-8"></path>
                    <path d="M19.9893551,1.99601633 C19.7464302,1.99601633 19.5469339,1.93479184 19.3908662,1.81234286 C19.2346733,1.68999184 19.156702,1.53355102 19.156702,1.34311837 C19.156702,1.15268571 19.2346733,0.996342857 19.3908662,0.873893878 C19.5469339,0.751542857 19.7464302,0.690318367 19.9893551,0.690318367 C20.2321549,0.690318367 20.4316512,0.751542857 20.5877189,0.873893878 C20.7439117,0.996342857 20.8220082,1.15268571 20.8220082,1.34311837 C20.8220082,1.53355102 20.7439117,1.68999184 20.5877189,1.81234286 C20.4316512,1.93479184 20.2321549,1.99601633 19.9893551,1.99601633 Z M19.4689626,7.99405714 C19.3822305,7.99405714 19.3388019,7.96006531 19.3388019,7.89198367 L19.3388019,2.9140898 C19.3388019,2.84600816 19.3822305,2.81201633 19.4689626,2.81201633 L20.4576833,2.81201633 C20.5444154,2.81201633 20.5877189,2.84600816 20.5877189,2.9140898 L20.5877189,7.89198367 C20.5877189,7.96006531 20.5444154,7.99405714 20.4576833,7.99405714 L19.4689626,7.99405714 Z" id="Fill-9"></path>
                    <path d="M22.0690286,8.0042449 C22.0011429,8.0042449 21.967151,7.97025306 21.967151,7.90217143 L21.967151,0.965681633 C21.967151,0.897697959 22.0011429,0.863706122 22.0690286,0.863706122 L22.8429061,0.863706122 C22.9107918,0.863706122 22.9447837,0.897697959 22.9447837,0.965681633 L22.9447837,7.90217143 C22.9447837,7.97025306 22.9107918,8.0042449 22.8429061,8.0042449 L22.0690286,8.0042449 Z" id="Fill-10"></path>
                    <path d="M28.7083102,4.76042449 C28.7354449,5.03921633 28.7456327,5.352 28.7388735,5.69887347 C28.7388735,5.76685714 28.7048816,5.80084898 28.6369959,5.80084898 L25.3886694,5.80084898 C25.3615347,5.80084898 25.3479184,5.81446531 25.3479184,5.84169796 C25.3479184,6.07288163 25.3682939,6.24969796 25.4090449,6.37214694 C25.4836898,6.64408163 25.6347429,6.85665306 25.8621061,7.00966531 C26.0895673,7.16267755 26.3763918,7.23918367 26.7225796,7.23918367 C27.2250122,7.23918367 27.611951,7.03170612 27.8834939,6.61694694 C27.9173878,6.54896327 27.9615673,6.53867755 28.0158367,6.58628571 L28.5962449,6.9739102 C28.6437551,7.01475918 28.6539429,7.05893878 28.6268082,7.10654694 C28.4367673,7.41257143 28.1668898,7.65404082 27.8172735,7.83085714 C27.4676571,8.00757551 27.0721959,8.09603265 26.6309878,8.09603265 C26.1354122,8.09603265 25.7179102,7.9872 25.3784816,7.76963265 C25.0390531,7.55196735 24.7844571,7.24261224 24.6146939,6.84137143 C24.4517878,6.44013061 24.3703837,5.95386122 24.3703837,5.38266122 C24.3703837,4.88620408 24.4077061,4.50876735 24.482351,4.25035102 C24.6046041,3.78112653 24.8489143,3.41044898 25.2155755,3.13851429 C25.5821388,2.86648163 26.0267755,2.73041633 26.5494857,2.73041633 C27.2352,2.73041633 27.7477224,2.90213878 28.087151,3.24558367 C28.4265796,3.58902857 28.6335673,4.0939102 28.7083102,4.76042449 Z M26.5494857,3.57707755 C26.2575673,3.57707755 26.0165878,3.65025306 25.8265469,3.79640816 C25.6364082,3.94266122 25.5074939,4.13818776 25.4396082,4.38298776 C25.392,4.53257143 25.3615347,4.72300408 25.3479184,4.95418776 C25.3479184,4.98142041 25.3615347,4.99503673 25.3886694,4.99503673 L27.7205878,4.99503673 C27.7477224,4.99503673 27.7612408,4.98142041 27.7612408,4.95418776 C27.7477224,4.72976327 27.7273469,4.56313469 27.7002122,4.4544 C27.6323265,4.18912653 27.4982204,3.97665306 27.2979918,3.81678367 C27.0976653,3.65701224 26.8481633,3.57707755 26.5494857,3.57707755 Z" id="Fill-11"></path>
                    <path d="M32.5370449,8.0042449 C32.4691592,8.0042449 32.4352653,7.97025306 32.4352653,7.90217143 L32.4352653,0.965681633 C32.4352653,0.897697959 32.4691592,0.863706122 32.5370449,0.863706122 L33.3110204,0.863706122 C33.3789061,0.863706122 33.4128,0.897697959 33.4128,0.965681633 L33.4128,7.90217143 C33.4128,7.97025306 33.3789061,8.0042449 33.3110204,8.0042449 L32.5370449,8.0042449 Z" id="Fill-12"></path>
                    <path d="M39.7669224,0.863706122 C39.8349061,0.863706122 39.8688,0.897697959 39.8688,0.965681633 L39.8688,1.61857959 C39.8688,1.68656327 39.8349061,1.7205551 39.7669224,1.7205551 L37.8118531,1.7205551 C37.7847184,1.7205551 37.771102,1.73417143 37.771102,1.76140408 L37.771102,7.90217143 C37.771102,7.97025306 37.7372082,8.0042449 37.6693224,8.0042449 L36.8953469,8.0042449 C36.8274612,8.0042449 36.7935673,7.97025306 36.7935673,7.90217143 L36.7935673,1.76140408 C36.7935673,1.73417143 36.779951,1.7205551 36.7528163,1.7205551 L34.8893388,1.7205551 C34.8214531,1.7205551 34.7874612,1.68656327 34.7874612,1.61857959 L34.7874612,0.965681633 C34.7874612,0.897697959 34.8214531,0.863706122 34.8893388,0.863706122 L39.7669224,0.863706122 Z" id="Fill-13"></path>
                </g>
            </g>
        </g>
    </g>
</svg>